# xmcd CD database file
#
# Track frame offsets:
#	150
#	19791
#	40706
#	57763
#	70539
#	87052
#	107215
#	124125
#	152922
#	170107
#	187574
#	209847
#	232084
#	255344
#	276749
#
# Disc length: 4014 seconds
#
# Revision: 1
# Processed by: cddbd v1.5.2PL0 Copyright (c) Steve Scherf et al.
# Submitted via: CDex 1.94
#
DISCID=d00fac0f
DTITLE=Simone - Mis 30 mejores canciones Disco 2
DYEAR=1998
DGENRE=Latin
TTITLE0=Cuando vuelva a tu lado
TTITLE1=Esquinas
TTITLE2=Petala
TTITLE3=Meu bem querer
TTITLE4=Mia
TTITLE5=Voy a apagar la luz
TTITLE6=Contigo aprendi
TTITLE7=Adoro-solamente una vez - sabor a mi
TTITLE8=Dos enamorados
TTITLE9=Pecado
TTITLE10=Todo por amor
TTITLE11=Alfonsina y el mar
TTITLE12=Apaixonou
TTITLE13=Alma
TTITLE14=Liberdade
EXTD=YEAR: 1998
EXTT0=
EXTT1=
EXTT2=
EXTT3=
EXTT4=
EXTT5=
EXTT6=
EXTT7=
EXTT8=
EXTT9=
EXTT10=
EXTT11=
EXTT12=
EXTT13=
EXTT14=
PLAYORDER=
